<svg width="16" height="17" viewBox="0 0 16 17" fill="none" xmlns="http://www.w3.org/2000/svg">
<path d="M15.3723 13.8212C14.9709 12.8705 14.3885 12.0069 13.6574 11.2786C12.9285 10.5482 12.0651 9.9659 11.1149 9.56377C11.1064 9.55951 11.0979 9.55738 11.0893 9.55313C12.4149 8.59569 13.2766 7.03612 13.2766 5.27656C13.2766 2.36169 10.9149 0 8 0C5.08513 0 2.72344 2.36169 2.72344 5.27656C2.72344 7.03612 3.58514 8.59569 4.91066 9.55526C4.90215 9.55951 4.89364 9.56164 4.88513 9.56589C3.93194 9.96802 3.07663 10.5446 2.34259 11.2808C1.61219 12.0096 1.02984 12.873 0.627709 13.8233C0.232652 14.7536 0.0195891 15.7511 5.32039e-05 16.7616C-0.000514675 16.7843 0.00346833 16.8069 0.0117677 16.828C0.020067 16.8492 0.0325146 16.8685 0.0483771 16.8847C0.0642397 16.901 0.0831961 16.9139 0.104129 16.9227C0.125063 16.9315 0.14755 16.9361 0.170265 16.9361H1.44685C1.54047 16.9361 1.61494 16.8616 1.61706 16.7701C1.65962 15.1276 2.31919 13.5893 3.48514 12.4233C4.69151 11.2169 6.29363 10.5531 8 10.5531C9.70637 10.5531 11.3085 11.2169 12.5149 12.4233C13.6808 13.5893 14.3404 15.1276 14.3829 16.7701C14.3851 16.8637 14.4595 16.9361 14.5531 16.9361H15.8297C15.8524 16.9361 15.8749 16.9315 15.8959 16.9227C15.9168 16.9139 15.9358 16.901 15.9516 16.8847C15.9675 16.8685 15.9799 16.8492 15.9882 16.828C15.9965 16.8069 16.0005 16.7843 15.9999 16.7616C15.9787 15.7446 15.768 14.7552 15.3723 13.8212ZM8 8.93611C7.02341 8.93611 6.10427 8.55526 5.41278 7.86378C4.7213 7.17229 4.34045 6.25315 4.34045 5.27656C4.34045 4.29997 4.7213 3.38083 5.41278 2.68934C6.10427 1.99786 7.02341 1.61701 8 1.61701C8.97659 1.61701 9.89573 1.99786 10.5872 2.68934C11.2787 3.38083 11.6595 4.29997 11.6595 5.27656C11.6595 6.25315 11.2787 7.17229 10.5872 7.86378C9.89573 8.55526 8.97659 8.93611 8 8.93611Z" fill="#A5A5A5"/>
</svg>
